<svg xmlns="http://www.w3.org/2000/svg" viewBox="0 0 64 64">
  <defs>
    <linearGradient id="g" x1="0" y1="0" x2="1" y2="1">
      <stop offset="0" stop-color="#E8102E"/>
      <stop offset="1" stop-color="#B00C23"/>
    </linearGradient>
  </defs>
  <rect width="64" height="64" rx="14" fill="url(#g)"/>
  <path d="M20 26c-3 0-6 2-6 6v6c0 3 2 6 5 6 2 0 3-1 4-2l2-3h14l2 3c1 1 2 2 4 2 3 0 5-3 5-6v-6c0-4-3-6-6-6H20z M24 34v3 M22.5 35.5h3 M40 34a1.5 1.5 0 1 1 0-3 1.5 1.5 0 0 1 0 3z M44 37a1.5 1.5 0 1 1 0-3 1.5 1.5 0 0 1 0 3z" fill="none" stroke="#fff" stroke-width="2.5" stroke-linecap="round" stroke-linejoin="round"/>
  <circle cx="50" cy="18" r="4" fill="#10B981"/>
</svg>
